<svg fill="#1F1F1F" viewBox="0 0 239.6 17.8" xmlns="http://www.w3.org/2000/svg" xmlns:xlink="http://www.w3.org/1999/xlink">
  <path d="M16.1,13.8c-0.3-0.3-0.6-0.8-0.9-1.4l-1.8-3.6c0.1-0.1,0.2-0.1,0.4-0.2c1.6-0.9,2.3-2.1,2.3-3.7 c0-3.2-2.4-4.8-7.2-4.8H0v0.5c1.4,0,2.2,0.6,2.2,1.7v10.1c0,1.3-0.7,2-2.2,2v0.5h8.9v-0.5c-1.5,0-2.2-0.7-2.2-2V9.7h2.2 c0.1,0,0.1,0,0.2,0l1.4,3c0.6,1.4,1.3,2.1,2,2.1h5.3v-0.5C17,14.3,16.4,14.1,16.1,13.8z M8.9,9.2H6.7V0.5h2.2c1.9,0,2.8,1.3,2.8,4.4 C11.7,7.9,10.7,9.2,8.9,9.2z"/>
  <path d="M27.7,0h8.9v0.5c-1.5,0-2.2,0.7-2.2,2v9.8c0,1.3,0.7,2,2.2,2v0.5h-8.9v-0.5c1.5,0,2.2-0.7,2.2-2 V2.5c0-1.3-0.7-2-2.2-2V0"/>
  <path d="M61.2,11.5v3.3h-3.5L50.2,2.3v10.1c0,1.3,0.5,2,2,2v0.5h-4.8v-0.5c1.5,0,2-0.7,2-2V2.5 c0-1.3-0.5-2-2-2V0h6.4l6.6,11.1V2.5c0-1.3-0.5-2-2-2V0h4.8v0.5c-1.5,0-2,0.7-2,2V11.5"/>
  <path d="M85.8,1.9C84.5,0.6,82.5,0,80,0c-2.5,0-4.5,0.6-5.8,1.9c-1.4,1.3-2.1,3.1-2.1,5.5c0,2.4,0.7,4.2,2,5.5 c1.4,1.3,3.3,1.9,5.9,1.9c2.5,0,4.5-0.6,5.9-1.9c1.4-1.3,2-3.1,2-5.5C87.9,5.1,87.2,3.2,85.8,1.9z M82.8,12.9 c-0.4,1-1.3,1.5-2.8,1.5c-1.6,0-2.6-0.6-3-1.8c-0.3-1-0.4-2.5-0.4-5.1c0-2.5,0.1-4.1,0.4-5.1c0.4-1.2,1.3-1.8,3-1.8 c1.4,0,2.4,0.5,2.8,1.5c0.4,1,0.6,2.7,0.6,5.4C83.4,10.2,83.2,11.8,82.8,12.9z"/>
  <path d="M137.9,1.4c-1.3-0.9-3.1-1.4-5.5-1.4h-9v0.5c1.4,0,2.2,0.4,2.2,1.5v10.5c0,1.3-0.7,1.8-2.2,1.8v0.5h9v-0.5 c-1.5,0-2.2-0.4-2.2-1.8v-1.7h2.2c2.4,0,4.2-0.4,5.5-1.1c1.6-0.9,2.4-2.3,2.4-4C140.2,4,139.5,2.5,137.9,1.4z M132.4,10.3h-2.2V0.5 h2.2c2.2,0,3.4,1.6,3.4,5.2C135.8,8.9,134.6,10.3,132.4,10.3z"/>
  <path d="M150.1,0h14.5v4.3h-0.5c-0.2-2.7-1.1-3.5-3.3-3.5h-4.1v6h1.4c1.3,0,1.7-0.5,1.7-2h0.5v4.8h-0.5 c0-1.5-0.4-2.1-1.7-2.1h-1.4v6.6h4.3c2.2,0,3.1-0.9,3.3-3.5h0.5v4.3h-14.8v-0.5c1.4,0,2.2-0.4,2.2-1.5V2.3c0-1.3-0.7-1.8-2.2-1.8V0" />
  <path d="M185.7,14.1c2.2,0,3.2-0.9,3.4-3.5h0.5v4.3h-14.8v-0.5c1.4,0,2.2-0.3,2.3-1.3V2.3 c0-1.3-0.8-1.8-2.3-1.8V0h9.3v0.5c-1.5,0-2.3,0.4-2.3,1.8v11.8H185.7"/>
  <path d="M210.4,14.1c2.2,0,3.2-0.9,3.4-3.5h0.5v4.3h-14.8v-0.5c1.4,0,2.2-0.3,2.3-1.3V2.3 c0-1.3-0.8-1.8-2.4-1.8V0h9.3v0.5c-1.5,0-2.3,0.4-2.3,1.8v11.8H210.4"/>
  <path d="M224.5,0.4h14.8v4.2h-0.5c-0.2-2.6-1.1-3.5-3.3-3.5h-4.1v5.9h1.4c1.3,0,1.8-0.5,1.8-2h0.5v4.8 h-0.5c0-1.5-0.4-2-1.8-2h-1.4v6.5h4.4c2.2,0,3.2-0.9,3.3-3.5h0.5V15h-15.1v-0.5c1.5,0,2.2-0.3,2.3-1.5V2.7c0-1.3-0.8-1.7-2.3-1.7 V0.4"/>
  <path d="M102.7,6.8c-0.1,0.2-0.3,0.5-0.4,0.9c0,0.2-0.1,0.7-0.1,2.3c0,1.2,0.2,2.1,0.7,2.7 c0.5,0.6,1.2,0.8,2.3,0.8c0.4,0,0.9-0.1,1.6-0.2l-3.9-6C102.9,7.1,102.8,7,102.7,6.8z M114.4,17.8h-3.8c-0.1,0-0.5,0-0.8-0.1 c-0.2-0.1-0.3-0.2-0.3-0.3l-0.2-0.2c-0.2-0.2-0.4-0.5-0.6-0.9l-1.7-2.6c-0.7,0.2-1.3,0.3-1.8,0.3c-1.7,0-3.1-0.4-4.1-1.1 c-1-0.7-1.5-1.7-1.5-3c0-1.1,0.2-2,0.7-2.6c0.4-0.6,1.1-1,2-1.2c-0.3-0.7-0.4-1.3-0.4-1.8c0-1,0.4-1.8,1.1-2.4 c0.7-0.5,1.6-0.8,2.6-0.8c1.1,0,2.1,0.4,3,1.1l0.1,0v2h-0.5V4c0-0.4-0.1-0.8-0.3-1.2c-0.5-0.9-1.2-1.3-2.2-1.3c-1.2,0-1.4,0.6-1.4,1 c0,0.3,0.2,0.8,1,2.2l4.5,7.2c0.7-0.6,1.1-1.4,1.1-2.3c0-0.3-0.1-0.7-0.2-1.1c-0.1-0.4-0.4-0.8-0.7-1.2c-0.4-0.4-0.8-0.6-1.3-0.6 h-0.2V6.3h3.2v0.5h-0.2c-0.3,0-0.7,0-0.7,0.2c0,0,0,0.2,0.3,0.9c0.2,0.6,0.3,1.1,0.3,1.7c0,1.1-0.4,2-1.3,2.8l2.3,3.7 c0.2,0.4,0.5,0.7,0.7,0.9c0.3,0.2,0.4,0.3,0.5,0.3c0.1,0,0.3,0,0.6,0h0.2V17.8L114.4,17.8z"/>
</svg>